# xmcd
#
# Track frame offsets:
#	150
#	11590
#	23580
#	34907
#	46612
#	59161
#	71324
#	83261
#	96050
#	108525
#	121061
#	134281
#	147228
#	161035
#	175863
#	189460
#	203318
#	215798
#	227484
#	239316
#	250151
#	265782
#	277979
#	291104
#
# Disc length: 4067 seconds
#
# Revision: 1
# Processed by: cddbd v1.5.1PL0 Copyright (c) Steve Scherf et al.
# Submitted via: audiograbber 1.83.01
#
DISCID=430fe118
DTITLE=Bill Boyd - Swing With Bill Boyd
DYEAR=2000
DGENRE=Western Swing
TTITLE0=You Can't Come In
TTITLE1=Red Lips
TTITLE2=Devilish Mary
TTITLE3=Swing Steel Swing
TTITLE4=The Sunset Trail To Texas
TTITLE5=I'll Find You
TTITLE6=Drink The Beer Barrel Dry
TTITLE7=So Tired Of Waiting Alone
TTITLE8=What's The Use
TTITLE9=Won't You Please Come HOme
TTITLE10=I'll Be Back In A Year, Little Darlin'
TTITLE11=She's Doggin' Me
TTITLE12=Strawberry Roan
TTITLE13=Blues Is Nothing
TTITLE14=Madeira
TTITLE15=Rollin' Down The Great Divide
TTITLE16=Ridin' Old Paint and Leadin' Old Ball
TTITLE17=When I Had My Pony On The Range
TTITLE18=Never Break Your Promise To A Woman
TTITLE19=Skater Walter
TTITLE20='Deed I Do
TTITLE21=She's Killing Me
TTITLE22=Texas Blues
TTITLE23=Right Or Wrong
EXTD=
EXTT0=
EXTT1=
EXTT2=
EXTT3=
EXTT4=
EXTT5=
EXTT6=
EXTT7=
EXTT8=
EXTT9=
EXTT10=
EXTT11=
EXTT12=
EXTT13=
EXTT14=
EXTT15=
EXTT16=
EXTT17=
EXTT18=
EXTT19=
EXTT20=
EXTT21=
EXTT22=
EXTT23=
PLAYORDER=
